<svg xmlns="http://www.w3.org/2000/svg" viewBox="0 0 24 24"><defs><style>.cls-1{fill:#313131;}.cls-2{fill:#ef476f;fill-rule:evenodd;}</style></defs><title>Asset 4</title><g id="Layer_2" data-name="Layer 2"><g id="Layer_1-2" data-name="Layer 1"><g id="resume"><g id="left_side_bar" data-name="left side bar"><g id="sm"><g id="github"><circle id="github_bg" data-name="github bg" class="cls-1" cx="12" cy="12" r="12"/><path id="github-2" class="cls-2" d="M12,4.8a7.29,7.29,0,0,0-7.2,7.38,7.37,7.37,0,0,0,4.92,7c.36.07.49-.16.49-.35V17.57c-2,.45-2.43-1-2.43-1A2,2,0,0,0,7,15.5c-.65-.46,0-.45,0-.45a1.53,1.53,0,0,1,1.1.76,1.52,1.52,0,0,0,2,.65l.06,0a1.55,1.55,0,0,1,.46-1c-1.6-.19-3.28-.82-3.28-3.65a2.84,2.84,0,0,1,.74-2,2.68,2.68,0,0,1,.07-1.95s.6-.2,2,.75a6.67,6.67,0,0,1,3.6,0c1.37-.95,2-.75,2-.75a2.73,2.73,0,0,1,.07,2,2.88,2.88,0,0,1,.74,2c0,2.84-1.69,3.46-3.29,3.64a1.79,1.79,0,0,1,.49,1.37c0,1,0,1.78,0,2s.13.42.5.35a7.36,7.36,0,0,0,4.92-7A7.29,7.29,0,0,0,12,4.8Z"/></g></g></g></g></g></g></svg>