<svg xmlns="http://www.w3.org/2000/svg" viewBox="0 0 24 24"><defs><style>.cls-1{fill:#8d8d8d;}.cls-2{fill:#fafbfb;}</style></defs><title>Asset 1</title><g id="Layer_2" data-name="Layer 2"><g id="Layer_1-2" data-name="Layer 1"><circle id="Ellipse_4" data-name="Ellipse 4" class="cls-1" cx="12" cy="12" r="12"/><rect class="cls-2" x="7.51" y="9.4" width="2.23" height="7.09"/><path class="cls-2" d="M8.63,8.42A1.28,1.28,0,1,1,9.92,7.14,1.26,1.26,0,0,1,8.67,8.42Z"/><path class="cls-2" d="M18,16.5H15.74V12.63c0-1.14-.48-1.49-1.11-1.49a1.35,1.35,0,0,0-1.32,1.39.57.57,0,0,0,0,.13v3.85H11.09V9.41h2.15v1h0a2.43,2.43,0,0,1,2.12-1.18A2.55,2.55,0,0,1,18,11.68a2,2,0,0,1,0,.43Z"/></g></g></svg>