<svg xmlns="http://www.w3.org/2000/svg" viewBox="0 0 24 24"><defs><style>.cls-1{fill:#303030;}.cls-2{fill:#ef476f;}</style></defs><title>Asset 5</title><g id="Layer_2" data-name="Layer 2"><g id="Layer_1-2" data-name="Layer 1"><g id="resume"><g id="left_side_bar" data-name="left side bar"><g id="sm"><g id="Twitter"><g id="Dark_Blue" data-name="Dark Blue"><circle id="Ellipse_3" data-name="Ellipse 3" class="cls-1" cx="12" cy="12" r="12"/></g><g id="Logo_FIXED" data-name="Logo — FIXED"><path id="Path_4" data-name="Path 4" class="cls-2" d="M9.8,18.33A8.18,8.18,0,0,0,18,10.21V10.1c0-.13,0-.25,0-.37a5.91,5.91,0,0,0,1.45-1.5,6,6,0,0,1-1.67.45,2.9,2.9,0,0,0,1.28-1.6,5.79,5.79,0,0,1-1.84.7,2.89,2.89,0,0,0-5,2,2.44,2.44,0,0,0,.08.66,8.19,8.19,0,0,1-6-3,2.9,2.9,0,0,0,.9,3.86A3,3,0,0,1,6,10.9v0a2.89,2.89,0,0,0,2.32,2.84,2.84,2.84,0,0,1-.76.1,3.31,3.31,0,0,1-.55,0,2.9,2.9,0,0,0,2.7,2,5.84,5.84,0,0,1-3.59,1.23,5.22,5.22,0,0,1-.69,0,8.05,8.05,0,0,0,4.42,1.31"/></g></g></g></g></g></g></g></svg>